<?xml version="1.0" encoding="utf-8"?>
<!-- Generator: Adobe Illustrator 27.5.0, SVG Export Plug-In . SVG Version: 6.00 Build 0)  -->
<svg version="1.1" xmlns="http://www.w3.org/2000/svg" xmlns:xlink="http://www.w3.org/1999/xlink" x="0px" y="0px"
	 viewBox="0 0 500 500" style="enable-background:new 0 0 500 500;" xml:space="preserve">
<g id="Background_Simple">
	<g>
		<path style="fill:#92E3A9;" d="M466.948,183.652c-2.807-7.763-6.033-15.326-9.603-22.596
			C425.688,96.581,366.692,52.86,294.061,41.366c-3.13-0.495-6.271-0.931-9.419-1.31c-59.279-7.131-142.276,1.768-176.112,56.567
			c-17.573,28.461-10.362,64.348-28.999,92.04c-24.128,35.85-55.149,53.775-60.894,109.79c-4.227,41.212-2.252,85.743,26.885,118.62
			c34.34,38.747,93.269,52.087,143.605,44.652c48.86-7.216,92.6-31.34,135.336-54.002c40.56-21.509,86.954-37.13,119.816-70.035
			C485.723,296.188,485.687,235.479,466.948,183.652z"/>
		<path style="opacity:0.7;fill:#FFFFFF;" d="M466.948,183.652c-2.807-7.763-6.033-15.326-9.603-22.596
			C425.688,96.581,366.692,52.86,294.061,41.366c-3.13-0.495-6.271-0.931-9.419-1.31c-59.279-7.131-142.276,1.768-176.112,56.567
			c-17.573,28.461-10.362,64.348-28.999,92.04c-24.128,35.85-55.149,53.775-60.894,109.79c-4.227,41.212-2.252,85.743,26.885,118.62
			c34.34,38.747,93.269,52.087,143.605,44.652c48.86-7.216,92.6-31.34,135.336-54.002c40.56-21.509,86.954-37.13,119.816-70.035
			C485.723,296.188,485.687,235.479,466.948,183.652z"/>
	</g>
</g>
<g id="Plants">
	<g>
		<path style="fill:#CCCCCC;" d="M68.546,166.469c3.971,1.735,13.687,1.516,13.694,1.516c0.101-0.003-2.088-6.36-2.271-6.745
			c-2.132-4.459-8.873-11.821-14.358-11.08c-3.951,0.534-6.149,4.489-5.256,8.209C61.265,162.168,65.163,164.991,68.546,166.469z"/>
		<path style="fill:#CCCCCC;" d="M166.81,168.606c0.085,0.054,1.767-6.456,1.826-6.879c0.681-4.895-0.879-14.754-5.863-17.162
			c-3.59-1.734-7.604,0.352-8.912,3.947c-1.336,3.672,0.358,8.177,2.364,11.276C158.579,163.425,166.803,168.602,166.81,168.606z"/>
		<path style="fill:#CCCCCC;" d="M195.806,133.401c-5.503-0.592-12.042,6.949-14.053,11.464c-0.173,0.391-2.19,6.805-2.088,6.804
			c0,0,0.094-0.001,0.117-0.001c-1.042,1.183-2.145,2.463-3.321,3.885c-2.152,2.644-4.561,5.652-6.961,9.102
			c-2.407,3.441-4.926,7.248-7.217,11.498c-2.302,4.256-4.506,8.85-6.165,13.878c-0.019,0.057-0.031,0.118-0.05,0.175
			c0.028-1.621-0.044-6.157-0.089-6.504c-0.635-4.901-4.743-13.999-10.186-15.005c-3.921-0.724-7.242,2.348-7.555,6.16
			c-0.319,3.894,2.505,7.792,5.258,10.251c3.104,2.773,11.723,5.459,12.41,5.671c-1.536,4.803-2.722,9.856-3.641,15.036
			c-0.528,2.961-0.969,5.96-1.372,8.972c-0.02-1.403-0.049-2.656-0.072-2.831c-0.635-4.901-4.744-13.998-10.186-15.004
			c-3.921-0.725-7.242,2.347-7.554,6.16c-0.32,3.894,2.504,7.792,5.258,10.251c2.793,2.495,10.095,4.933,12.036,5.552
			c-0.142,1.157-0.298,2.311-0.436,3.469c-0.664,5.554-1.302,11.101-2.095,16.521c-0.278,1.911-0.623,3.781-0.961,5.655
			c-0.02-1.246-0.046-2.295-0.067-2.454c-0.635-4.902-4.744-13.999-10.187-15.005c-3.921-0.725-7.242,2.347-7.554,6.161
			c-0.319,3.893,2.505,7.791,5.258,10.251c2.666,2.381,9.385,4.691,11.688,5.438c-0.404,1.908-0.805,3.819-1.282,5.65
			c-0.355,1.243-0.61,2.463-1.034,3.692c-0.395,1.225-0.787,2.438-1.174,3.638c-0.832,2.285-1.675,4.649-2.543,6.858
			c-0.591,1.541-1.183,2.998-1.775,4.468c0.3-1.898,0.807-5.627,0.814-5.943c0.076-3.283-1.09-8.621-3.41-12.372
			c0.014-0.485-0.014-0.969-0.091-1.449c-0.607-3.777-4.156-6.583-8.009-5.556c-5.348,1.424-8.741,10.812-8.994,15.748
			c-0.015,0.291,0.176,3.468,0.329,5.471c-0.269-1.164-0.517-2.296-0.809-3.49c-0.561-2.366-1.19-4.71-1.858-7.235
			c-0.365-1.208-0.734-2.428-1.107-3.659c-0.343-1.23-0.863-2.485-1.292-3.742c-1.058-2.892-2.27-5.771-3.556-8.645
			c2.07-0.497,9.396-2.364,12.338-4.621c2.928-2.247,6.034-5.924,6.006-9.83c-0.028-3.825-3.109-7.136-7.074-6.706
			c-5.502,0.598-10.278,9.363-11.276,14.204c-0.063,0.302-0.389,3.855-0.53,5.811c-0.787-1.722-1.563-3.444-2.415-5.16
			c-2.459-4.953-5.103-9.89-7.718-14.827c-0.803-1.512-1.582-3.027-2.371-4.542c0.739-0.168,9.495-2.2,12.79-4.728
			c2.929-2.247,6.035-5.924,6.007-9.831c-0.028-3.826-3.11-7.136-7.074-6.706c-5.503,0.598-10.277,9.364-11.276,14.204
			c-0.075,0.365-0.537,5.479-0.591,6.785c-1.733-3.336-3.429-6.677-4.967-10.038c-2.129-4.635-3.962-9.3-5.403-13.951
			c0.344-0.078,9.492-2.157,12.868-4.746c2.929-2.247,6.035-5.924,6.007-9.831c-0.027-3.826-3.11-7.137-7.074-6.706
			c-5.503,0.598-10.278,9.364-11.276,14.203c-0.066,0.318-0.422,4.217-0.547,6.073c-0.173,0.018-0.141,0.015-0.314,0.034
			c-1.484-5.002-2.292-10.034-2.815-14.781c-0.308-2.749-0.45-5.394-0.53-7.97c1.743-0.212,9.701-1.272,12.996-3.267
			c3.158-1.912,6.649-5.225,7.051-9.111c0.393-3.805-2.308-7.435-6.295-7.442c-5.535-0.01-11.243,8.178-12.768,12.879
			c-0.083,0.255-0.638,2.948-1.015,4.914c-0.018-1.163-0.058-2.363-0.053-3.478c0.007-4.185,0.272-8.017,0.534-11.41
			c0.164-1.928,0.352-3.667,0.543-5.294c1.602-1.101,8.004-5.62,9.972-8.849c1.921-3.152,3.493-7.701,2.059-11.335
			c-1.406-3.558-5.474-5.535-9.016-3.705c-4.917,2.542-6.21,12.439-5.397,17.315c0.071,0.421,1.927,6.884,2.012,6.827
			c0,0,0.078-0.053,0.097-0.066c-0.216,1.561-0.43,3.237-0.626,5.073c-0.337,3.393-0.686,7.23-0.785,11.432
			c-0.109,4.198-0.11,8.763,0.324,13.57c0.428,4.82,1.124,9.868,2.514,14.977c0.016,0.058,0.04,0.116,0.055,0.173
			c-0.87-1.368-3.433-5.111-3.662-5.376c-3.234-3.737-11.679-9.058-16.773-6.896c-3.671,1.559-4.746,5.953-2.903,9.306
			c1.882,3.424,6.388,5.117,10.04,5.649c4.12,0.6,12.79-1.914,13.479-2.117c1.368,4.853,3.167,9.722,5.259,14.55
			c1.192,2.761,2.479,5.506,3.805,8.24c-0.791-1.158-1.506-2.188-1.622-2.322c-3.234-3.738-11.68-9.058-16.774-6.895
			c-3.671,1.559-4.745,5.953-2.902,9.305c1.882,3.424,6.387,5.117,10.04,5.65c3.706,0.54,11.141-1.455,13.102-2.009
			c0.52,1.044,1.026,2.092,1.549,3.134c2.511,4.999,5.038,9.977,7.367,14.935c0.822,1.747,1.567,3.498,2.319,5.247
			c-0.704-1.028-1.305-1.889-1.41-2.01c-3.234-3.737-11.679-9.059-16.773-6.895c-3.67,1.559-4.745,5.953-2.902,9.306
			c1.882,3.424,6.387,5.117,10.041,5.649c3.537,0.516,10.416-1.264,12.749-1.912c0.715,1.814,1.436,3.63,2.047,5.42
			c0.39,1.232,0.851,2.391,1.174,3.65c0.346,1.24,0.689,2.467,1.028,3.683c0.567,2.365,1.167,4.801,1.662,7.122
			c0.357,1.611,0.667,3.154,0.984,4.706c-0.797-1.748-2.431-5.138-2.6-5.406c-2.63-4.184-10.171-10.723-15.535-9.357
			c-3.864,0.985-5.592,5.165-4.278,8.758c1.342,3.67,5.538,6.026,9.068,7.106c3.887,1.188,12.492,0.102,13.566-0.041
			c0.515,2.571,0.993,5.077,1.405,7.449c1.435,8.141,2.326,14.982,2.884,19.805h3.751c-0.015-0.11-0.028-0.208-0.043-0.321
			c-0.671-4.875-1.726-11.821-3.369-20.087c-0.513-2.613-1.114-5.395-1.757-8.246c0.646-0.257,4.317-1.741,7.568-3.559
			c2.833,3.067,10.092,6.658,11.032,7.115c-0.989,2.429-1.973,4.782-2.937,6.988c-3.294,7.582-6.325,13.779-8.52,18.109h4.117
			c2.034-4.296,4.638-10.021,7.423-16.833c1.014-2.463,2.048-5.114,3.084-7.848c1.041,0.218,9.56,1.949,13.53,1.052
			c3.601-0.814,7.961-2.851,9.573-6.41c1.578-3.485,0.166-7.783-3.614-9.052c-5.246-1.763-13.255,4.196-16.189,8.173
			c-0.173,0.235-1.767,2.99-2.744,4.745c0.418-1.119,0.835-2.2,1.251-3.357c0.838-2.282,1.606-4.585,2.442-7.059
			c0.362-1.209,0.727-2.43,1.095-3.663c0.392-1.215,0.652-2.548,0.987-3.834c0.713-2.996,1.29-6.066,1.803-9.173
			c2,0.729,9.141,3.213,12.84,2.953c3.682-0.259,8.301-1.611,10.433-4.886c2.088-3.206,1.343-7.668-2.201-9.496
			c-4.919-2.537-13.738,2.14-17.241,5.626c-0.219,0.217-2.451,3.001-3.648,4.554c0.294-1.87,0.597-3.734,0.832-5.635
			c0.682-5.488,1.2-11.064,1.742-16.624c0.165-1.704,0.35-3.398,0.529-5.096c0.708,0.267,9.133,3.403,13.276,3.112
			c3.682-0.258,8.301-1.611,10.434-4.886c2.087-3.206,1.343-7.668-2.201-9.495c-4.919-2.537-13.738,2.14-17.241,5.626
			c-0.264,0.263-3.47,4.274-4.236,5.334c0.395-3.739,0.824-7.461,1.395-11.113c0.782-5.041,1.827-9.943,3.19-14.617
			c0.33,0.126,9.107,3.438,13.351,3.14c3.683-0.259,8.301-1.611,10.434-4.886c2.088-3.206,1.343-7.668-2.201-9.496
			c-4.92-2.537-13.738,2.14-17.24,5.626c-0.23,0.229-2.675,3.281-3.805,4.761c-0.154-0.08-0.126-0.065-0.281-0.146
			c1.521-4.989,3.624-9.631,5.805-13.879c1.259-2.463,2.6-4.747,3.955-6.939c1.571,0.785,8.793,4.291,12.641,4.445
			c3.689,0.147,8.428-0.69,10.907-3.71c2.427-2.958,2.177-7.475-1.145-9.681c-4.611-3.062-13.889,0.619-17.754,3.699
			c-0.21,0.168-2.158,2.107-3.557,3.54c0.627-0.98,1.255-2.003,1.874-2.93c2.315-3.487,4.65-6.537,6.74-9.222
			c1.201-1.517,2.316-2.865,3.374-4.115c1.944-0.035,9.775-0.272,13.199-1.879c3.341-1.569,7.162-4.496,7.97-8.319
			C202.074,137.722,199.771,133.828,195.806,133.401z"/>
	</g>
	<g>
		<path style="fill:#CCCCCC;" d="M231.064,309.987c3.971,1.735,13.687,1.516,13.694,1.516c0.101-0.003-2.088-6.36-2.271-6.745
			c-2.132-4.459-8.873-11.821-14.358-11.08c-3.951,0.534-6.149,4.489-5.256,8.209C223.783,305.686,227.681,308.509,231.064,309.987z
			"/>
		<path style="fill:#CCCCCC;" d="M329.328,312.124c0.085,0.054,1.767-6.456,1.826-6.879c0.681-4.895-0.879-14.754-5.863-17.162
			c-3.59-1.734-7.604,0.352-8.912,3.946c-1.336,3.672,0.358,8.177,2.364,11.276C321.098,306.943,329.322,312.12,329.328,312.124z"/>
		<path style="fill:#CCCCCC;" d="M358.324,276.919c-5.503-0.592-12.042,6.949-14.053,11.464c-0.173,0.391-2.19,6.805-2.088,6.804
			c0,0,0.095-0.001,0.117-0.001c-1.042,1.182-2.145,2.462-3.321,3.885c-2.152,2.644-4.56,5.652-6.961,9.102
			c-2.407,3.441-4.926,7.249-7.217,11.498c-2.302,4.256-4.507,8.85-6.165,13.878c-0.019,0.057-0.031,0.118-0.05,0.175
			c0.028-1.621-0.044-6.157-0.089-6.504c-0.635-4.901-4.743-13.999-10.186-15.005c-3.921-0.724-7.242,2.348-7.555,6.16
			c-0.319,3.894,2.504,7.792,5.258,10.251c3.104,2.773,11.723,5.459,12.41,5.671c-1.536,4.803-2.722,9.856-3.641,15.036
			c-0.528,2.961-0.969,5.96-1.372,8.972c-0.02-1.403-0.049-2.656-0.072-2.831c-0.635-4.901-4.744-13.998-10.186-15.004
			c-3.921-0.725-7.242,2.347-7.554,6.16c-0.32,3.894,2.504,7.792,5.258,10.251c2.793,2.495,10.095,4.933,12.036,5.552
			c-0.142,1.157-0.298,2.311-0.436,3.469c-0.664,5.554-1.302,11.101-2.095,16.521c-0.278,1.911-0.623,3.781-0.961,5.655
			c-0.02-1.246-0.046-2.295-0.067-2.454c-0.635-4.902-4.744-13.999-10.187-15.005c-3.921-0.725-7.242,2.347-7.554,6.161
			c-0.319,3.893,2.505,7.792,5.258,10.251c2.666,2.381,9.385,4.691,11.688,5.438c-0.404,1.908-0.805,3.819-1.282,5.65
			c-0.355,1.243-0.609,2.463-1.034,3.692c-0.395,1.225-0.787,2.438-1.174,3.639c-0.832,2.285-1.675,4.649-2.543,6.858
			c-0.591,1.541-1.183,2.998-1.775,4.468c0.3-1.898,0.807-5.627,0.814-5.943c0.076-3.283-1.09-8.621-3.41-12.372
			c0.014-0.485-0.014-0.969-0.091-1.449c-0.607-3.777-4.156-6.582-8.009-5.556c-5.348,1.424-8.741,10.812-8.994,15.748
			c-0.015,0.291,0.176,3.468,0.329,5.471c-0.269-1.164-0.517-2.296-0.809-3.49c-0.561-2.366-1.19-4.71-1.858-7.235
			c-0.365-1.207-0.735-2.427-1.108-3.659c-0.343-1.23-0.863-2.485-1.292-3.742c-1.058-2.892-2.271-5.771-3.556-8.645
			c2.07-0.496,9.396-2.363,12.338-4.621c2.928-2.247,6.034-5.924,6.006-9.831c-0.028-3.825-3.109-7.137-7.074-6.706
			c-5.502,0.598-10.278,9.363-11.276,14.204c-0.063,0.302-0.389,3.855-0.53,5.811c-0.787-1.722-1.563-3.444-2.415-5.159
			c-2.459-4.953-5.103-9.89-7.718-14.827c-0.803-1.512-1.582-3.027-2.371-4.542c0.739-0.168,9.495-2.2,12.79-4.728
			c2.929-2.247,6.035-5.924,6.007-9.831c-0.028-3.826-3.11-7.136-7.074-6.706c-5.503,0.598-10.277,9.364-11.276,14.203
			c-0.075,0.365-0.537,5.479-0.591,6.785c-1.733-3.336-3.429-6.677-4.967-10.038c-2.129-4.635-3.962-9.3-5.403-13.951
			c0.344-0.078,9.492-2.157,12.868-4.746c2.929-2.247,6.035-5.924,6.007-9.831c-0.027-3.826-3.11-7.137-7.074-6.706
			c-5.503,0.598-10.278,9.363-11.276,14.203c-0.066,0.318-0.422,4.216-0.547,6.073c-0.173,0.018-0.141,0.015-0.314,0.034
			c-1.484-5.002-2.292-10.034-2.815-14.781c-0.309-2.749-0.45-5.394-0.53-7.97c1.743-0.212,9.701-1.272,12.996-3.267
			c3.158-1.912,6.649-5.225,7.051-9.111c0.393-3.805-2.308-7.435-6.295-7.442c-5.535-0.01-11.243,8.178-12.768,12.879
			c-0.083,0.255-0.638,2.948-1.015,4.914c-0.018-1.163-0.058-2.363-0.053-3.478c0.007-4.185,0.272-8.017,0.534-11.41
			c0.164-1.928,0.352-3.667,0.543-5.293c1.602-1.101,8.003-5.62,9.972-8.849c1.922-3.152,3.493-7.701,2.059-11.335
			c-1.405-3.559-5.474-5.535-9.016-3.705c-4.917,2.542-6.21,12.439-5.397,17.315c0.071,0.421,1.927,6.884,2.012,6.827
			c0,0,0.078-0.053,0.097-0.066c-0.216,1.561-0.43,3.237-0.626,5.073c-0.337,3.393-0.686,7.23-0.785,11.432
			c-0.109,4.198-0.11,8.763,0.323,13.57c0.428,4.82,1.124,9.868,2.514,14.977c0.016,0.058,0.04,0.116,0.055,0.173
			c-0.87-1.368-3.433-5.111-3.662-5.376c-3.234-3.737-11.679-9.058-16.773-6.896c-3.671,1.559-4.746,5.953-2.903,9.306
			c1.882,3.424,6.388,5.116,10.04,5.649c4.12,0.6,12.79-1.914,13.479-2.117c1.368,4.853,3.167,9.722,5.258,14.55
			c1.192,2.761,2.479,5.506,3.805,8.24c-0.791-1.158-1.506-2.188-1.622-2.322c-3.234-3.738-11.68-9.058-16.774-6.895
			c-3.671,1.559-4.745,5.953-2.902,9.305c1.882,3.424,6.387,5.117,10.04,5.65c3.706,0.54,11.141-1.455,13.102-2.009
			c0.52,1.044,1.026,2.092,1.549,3.134c2.511,4.999,5.038,9.977,7.367,14.935c0.822,1.747,1.567,3.498,2.319,5.247
			c-0.704-1.028-1.305-1.889-1.41-2.01c-3.234-3.738-11.679-9.059-16.773-6.895c-3.67,1.559-4.745,5.953-2.902,9.306
			c1.882,3.424,6.387,5.117,10.041,5.649c3.537,0.516,10.416-1.264,12.749-1.912c0.715,1.814,1.436,3.63,2.047,5.42
			c0.39,1.232,0.851,2.391,1.174,3.65c0.346,1.24,0.689,2.467,1.028,3.683c0.567,2.365,1.167,4.801,1.662,7.122
			c0.357,1.611,0.667,3.154,0.984,4.706c-0.797-1.748-2.431-5.138-2.6-5.406c-2.63-4.184-10.171-10.723-15.535-9.357
			c-3.863,0.985-5.593,5.165-4.278,8.758c1.342,3.67,5.539,6.026,9.069,7.106c3.887,1.188,12.492,0.102,13.566-0.041
			c0.515,2.571,0.993,5.077,1.405,7.449c1.436,8.141,2.326,14.982,2.885,19.805h3.751c-0.015-0.11-0.028-0.208-0.043-0.321
			c-0.671-4.875-1.726-11.821-3.369-20.087c-0.513-2.613-1.114-5.395-1.757-8.246c0.647-0.257,4.317-1.741,7.568-3.559
			c2.833,3.067,10.092,6.658,11.032,7.115c-0.988,2.429-1.973,4.782-2.937,6.988c-3.294,7.582-6.325,13.779-8.52,18.11h4.117
			c2.034-4.296,4.638-10.021,7.423-16.833c1.014-2.463,2.048-5.114,3.084-7.848c1.041,0.218,9.56,1.949,13.53,1.052
			c3.601-0.814,7.961-2.851,9.573-6.41c1.578-3.485,0.166-7.783-3.614-9.052c-5.246-1.763-13.255,4.196-16.189,8.173
			c-0.173,0.235-1.767,2.99-2.744,4.745c0.418-1.119,0.835-2.2,1.251-3.357c0.837-2.282,1.606-4.585,2.442-7.059
			c0.362-1.209,0.727-2.43,1.095-3.663c0.392-1.215,0.652-2.548,0.987-3.834c0.713-2.996,1.29-6.066,1.803-9.173
			c2,0.729,9.141,3.213,12.841,2.953c3.682-0.259,8.301-1.612,10.433-4.886c2.087-3.206,1.343-7.668-2.201-9.496
			c-4.919-2.537-13.738,2.14-17.241,5.627c-0.219,0.217-2.451,3.001-3.648,4.554c0.294-1.87,0.597-3.734,0.832-5.635
			c0.682-5.488,1.2-11.064,1.742-16.624c0.165-1.704,0.35-3.398,0.529-5.096c0.708,0.267,9.133,3.403,13.276,3.112
			c3.682-0.258,8.301-1.611,10.434-4.886c2.087-3.206,1.343-7.668-2.201-9.495c-4.919-2.537-13.738,2.14-17.241,5.626
			c-0.264,0.263-3.47,4.273-4.236,5.334c0.395-3.739,0.823-7.461,1.395-11.113c0.782-5.041,1.827-9.943,3.19-14.617
			c0.33,0.125,9.107,3.438,13.35,3.14c3.683-0.259,8.302-1.611,10.434-4.886c2.088-3.205,1.343-7.668-2.201-9.496
			c-4.92-2.537-13.738,2.14-17.24,5.626c-0.23,0.229-2.675,3.281-3.805,4.761c-0.154-0.08-0.126-0.065-0.281-0.146
			c1.521-4.989,3.624-9.631,5.805-13.879c1.259-2.463,2.6-4.747,3.955-6.939c1.571,0.785,8.793,4.291,12.641,4.445
			c3.689,0.147,8.428-0.69,10.907-3.71c2.427-2.958,2.177-7.475-1.145-9.681c-4.611-3.062-13.889,0.618-17.754,3.699
			c-0.21,0.168-2.158,2.107-3.557,3.54c0.627-0.98,1.255-2.003,1.874-2.931c2.315-3.487,4.65-6.537,6.74-9.222
			c1.201-1.517,2.316-2.865,3.374-4.115c1.944-0.034,9.775-0.272,13.199-1.879c3.341-1.569,7.162-4.496,7.97-8.319
			C364.592,281.24,362.289,277.346,358.324,276.919z"/>
	</g>
	<g>
		<path style="fill:#CCCCCC;" d="M62.091,316.202c4.12,1.344,13.769,0.188,13.776,0.187c0.1-0.012-2.692-6.128-2.912-6.494
			c-2.553-4.232-9.972-10.91-15.36-9.643c-3.881,0.913-5.687,5.061-4.44,8.678C54.429,312.625,58.581,315.057,62.091,316.202z"/>
		<path style="fill:#CCCCCC;" d="M160.102,308.844c0.09,0.046,1.135-6.596,1.154-7.023c0.206-4.938-2.299-14.6-7.492-16.516
			c-3.74-1.38-7.535,1.084-8.49,4.788c-0.975,3.784,1.146,8.104,3.441,10.995C151.41,304.482,160.095,308.841,160.102,308.844z"/>
		<path style="fill:#CCCCCC;" d="M185.565,271.005c-5.535-0.058-11.315,8.079-12.881,12.767c-0.135,0.405-1.523,6.984-1.422,6.974
			c0,0,0.094-0.01,0.117-0.013c-0.923,1.277-1.897,2.658-2.931,4.188c-1.887,2.84-3.994,6.066-6.049,9.732
			c-2.064,3.658-4.203,7.69-6.073,12.141c-1.881,4.458-3.631,9.244-4.797,14.409c-0.014,0.058-0.02,0.121-0.033,0.179
			c-0.128-1.616-0.638-6.124-0.716-6.465c-1.105-4.817-6.073-13.475-11.587-13.952c-3.973-0.342-6.982,3.036-6.925,6.861
			c0.059,3.907,3.245,7.514,6.223,9.696c3.358,2.461,12.195,4.302,12.899,4.446c-1.065,4.928-1.758,10.073-2.173,15.317
			c-0.24,2.998-0.389,6.026-0.499,9.063c-0.156-1.394-0.306-2.639-0.345-2.811c-1.105-4.817-6.073-13.475-11.587-13.951
			c-3.973-0.343-6.981,3.035-6.925,6.861c0.058,3.907,3.245,7.514,6.223,9.696c3.021,2.214,10.524,3.935,12.516,4.364
			c-0.03,1.166-0.073,2.329-0.099,3.495c-0.125,5.592-0.224,11.174-0.491,16.646c-0.092,1.928-0.255,3.824-0.41,5.721
			c-0.14-1.238-0.268-2.28-0.303-2.436c-1.106-4.818-6.073-13.476-11.588-13.951c-3.973-0.343-6.981,3.035-6.924,6.861
			c0.058,3.906,3.245,7.513,6.223,9.695c2.883,2.112,9.794,3.763,12.159,4.285c-0.218,1.938-0.433,3.879-0.731,5.747
			c-0.233,1.271-0.369,2.511-0.673,3.774c-0.275,1.258-0.548,2.502-0.818,3.735c-0.607,2.355-1.219,4.789-1.869,7.071
			c-0.439,1.591-0.889,3.099-1.336,4.618c0.115-1.918,0.26-5.678,0.237-5.993c-0.241-3.275-1.917-8.475-4.588-11.985
			c-0.033-0.484-0.107-0.963-0.23-1.433c-0.969-3.701-4.772-6.151-8.508-4.757c-5.186,1.934-7.656,11.605-7.432,16.542
			c0.013,0.291,0.51,3.435,0.855,5.414c-0.38-1.132-0.736-2.235-1.142-3.396c-0.786-2.3-1.639-4.573-2.547-7.022
			c-0.48-1.167-0.965-2.345-1.455-3.535c-0.46-1.191-1.099-2.39-1.647-3.599c-1.332-2.776-2.817-5.525-4.374-8.262
			c2.013-0.694,9.124-3.26,11.835-5.791c2.698-2.519,5.434-6.478,5.029-10.364c-0.397-3.805-3.784-6.803-7.688-5.992
			c-5.419,1.126-9.326,10.311-9.852,15.226c-0.033,0.306-0.015,3.875,0.034,5.835c-0.949-1.638-1.888-3.277-2.902-4.902
			c-2.926-4.692-6.033-9.351-9.113-14.012c-0.945-1.427-1.867-2.861-2.798-4.292c0.719-0.239,9.239-3.107,12.274-5.941
			c2.698-2.519,5.435-6.479,5.03-10.365c-0.397-3.805-3.784-6.803-7.689-5.992c-5.419,1.126-9.326,10.312-9.853,15.226
			c-0.039,0.37-0.005,5.505,0.067,6.811c-2.047-3.154-4.058-6.315-5.913-9.512c-2.566-4.408-4.841-8.875-6.724-13.365
			c0.335-0.111,9.24-3.063,12.349-5.966c2.698-2.519,5.435-6.478,5.03-10.365c-0.396-3.805-3.784-6.803-7.688-5.992
			c-5.42,1.126-9.326,10.312-9.853,15.225c-0.035,0.323-0.013,4.238,0.041,6.097c-0.17,0.035-0.139,0.029-0.309,0.064
			c-1.96-4.836-3.25-9.766-4.229-14.441c-0.572-2.706-0.969-5.325-1.297-7.881c1.715-0.38,9.533-2.202,12.62-4.506
			c2.958-2.208,6.114-5.842,6.138-9.749c0.023-3.826-3.015-7.178-6.984-6.8c-5.51,0.524-10.401,9.225-11.465,14.052
			c-0.058,0.262-0.35,2.996-0.535,4.989c-0.13-1.156-0.286-2.346-0.389-3.457c-0.397-4.167-0.503-8.006-0.57-11.408
			c-0.022-1.935-0.004-3.684,0.03-5.321c1.489-1.251,7.424-6.366,9.072-9.771c1.608-3.322,2.733-8.002,0.955-11.481
			c-1.742-3.406-5.983-4.981-9.332-2.817c-4.648,3.005-4.98,12.98-3.7,17.755c0.111,0.413,2.583,6.666,2.661,6.601
			c0,0,0.073-0.06,0.09-0.075c-0.065,1.574-0.116,3.263-0.134,5.109c-0.007,3.41,0.015,7.263,0.323,11.454
			c0.297,4.189,0.736,8.733,1.632,13.476c0.891,4.756,2.071,9.714,3.948,14.664c0.021,0.056,0.051,0.111,0.072,0.167
			c-0.998-1.277-3.91-4.756-4.164-4.998c-3.579-3.408-12.499-7.889-17.361-5.245c-3.503,1.906-4.149,6.383-1.991,9.543
			c2.204,3.226,6.852,4.476,10.539,4.654c4.159,0.2,12.545-3.14,13.212-3.408c1.83,4.699,4.091,9.371,6.638,13.974
			c1.453,2.633,2.999,5.241,4.582,7.834c-0.899-1.077-1.711-2.033-1.838-2.155c-3.58-3.408-12.5-7.888-17.361-5.244
			c-3.503,1.906-4.149,6.383-1.991,9.542c2.203,3.227,6.852,4.477,10.539,4.654c3.741,0.179,10.949-2.523,12.846-3.264
			c0.618,0.989,1.223,1.983,1.845,2.969c2.982,4.733,5.978,9.444,8.774,14.154c0.987,1.66,1.897,3.33,2.814,4.999
			c-0.8-0.956-1.481-1.754-1.598-1.865c-3.579-3.408-12.499-7.889-17.361-5.244c-3.503,1.906-4.149,6.383-1.99,9.542
			c2.204,3.226,6.851,4.476,10.539,4.653c3.57,0.172,10.245-2.264,12.504-3.133c0.887,1.736,1.78,3.474,2.561,5.197
			c0.507,1.189,1.078,2.298,1.521,3.52c0.464,1.201,0.923,2.389,1.378,3.566c0.793,2.299,1.625,4.666,2.342,6.929
			c0.511,1.569,0.968,3.075,1.434,4.589c-0.962-1.663-2.916-4.88-3.109-5.13c-3.021-3.911-11.159-9.691-16.366-7.814
			c-3.75,1.354-5.068,5.681-3.413,9.13c1.69,3.523,6.094,5.463,9.712,6.197c3.983,0.807,12.444-1.104,13.499-1.35
			c0.761,2.509,1.478,4.957,2.117,7.278c2.215,7.964,3.761,14.687,4.783,19.434l3.734-0.362c-0.026-0.108-0.048-0.204-0.074-0.315
			c-1.139-4.787-2.859-11.599-5.292-19.668c-0.763-2.551-1.629-5.262-2.545-8.038c0.619-0.318,4.128-2.15,7.189-4.272
			c3.116,2.78,10.687,5.653,11.667,6.017c-0.749,2.513-1.502,4.95-2.249,7.239c-2.547,7.864-4.966,14.325-6.732,18.847l4.098-0.397
			c1.609-4.472,3.649-10.422,5.764-17.471c0.771-2.549,1.545-5.288,2.312-8.109c1.057,0.117,9.704,1.017,13.568-0.259
			c3.505-1.157,7.649-3.606,8.909-7.304c1.234-3.621-0.586-7.762-4.471-8.661c-5.392-1.248-12.788,5.456-15.325,9.697
			c-0.15,0.25-1.47,3.146-2.273,4.987c0.308-1.154,0.619-2.271,0.921-3.462c0.613-2.352,1.156-4.718,1.749-7.262
			c0.243-1.238,0.489-2.489,0.736-3.752c0.273-1.247,0.403-2.599,0.612-3.911c0.42-3.051,0.699-6.163,0.909-9.304
			c2.061,0.532,9.409,2.315,13.065,1.699c3.64-0.613,8.107-2.405,9.913-5.87c1.768-3.393,0.597-7.762-3.107-9.239
			c-5.141-2.05-13.467,3.456-16.617,7.264c-0.197,0.237-2.15,3.224-3.191,4.885c0.112-1.889,0.233-3.774,0.284-5.689
			c0.149-5.528,0.126-11.128,0.129-16.714c0-1.712,0.021-3.416,0.035-5.123c0.731,0.197,9.419,2.505,13.514,1.816
			c3.64-0.612,8.107-2.405,9.913-5.87c1.768-3.392,0.596-7.761-3.108-9.238c-5.141-2.05-13.467,3.456-16.617,7.264
			c-0.237,0.287-3.042,4.588-3.701,5.718c0.032-3.759,0.099-7.506,0.316-11.195c0.291-5.093,0.858-10.073,1.765-14.857
			c0.34,0.093,9.397,2.543,13.591,1.837c3.64-0.613,8.107-2.405,9.913-5.87c1.769-3.392,0.597-7.761-3.107-9.239
			c-5.141-2.05-13.467,3.456-16.617,7.264c-0.207,0.25-2.346,3.524-3.328,5.106c-0.161-0.065-0.132-0.053-0.294-0.118
			c1.032-5.113,2.677-9.936,4.438-14.374c1.016-2.573,2.13-4.975,3.267-7.289c1.64,0.629,9.166,3.422,13.011,3.204
			c3.686-0.21,8.322-1.5,10.498-4.745c2.13-3.178,1.445-7.65-2.074-9.525c-4.885-2.602-13.765,1.956-17.314,5.395
			c-0.193,0.187-1.945,2.305-3.199,3.867c0.529-1.036,1.056-2.115,1.582-3.098c1.968-3.694,3.997-6.955,5.818-9.829
			c1.049-1.626,2.029-3.075,2.961-4.421c1.932-0.222,9.703-1.215,12.956-3.145c3.174-1.884,6.695-5.167,7.13-9.049
			C192.221,274.7,189.552,271.047,185.565,271.005z"/>
	</g>
</g>
<g id="Floor">
	<g>
		
			<line style="fill:none;stroke:#263238;stroke-linecap:round;stroke-linejoin:round;stroke-miterlimit:10;" x1="464" y1="444" x2="475" y2="444"/>
		
			<line style="fill:none;stroke:#263238;stroke-linecap:round;stroke-linejoin:round;stroke-miterlimit:10;" x1="40" y1="444" x2="453" y2="444"/>
	</g>
</g>
<g id="Device">
	<g>
		<path id="XMLID_4_" style="fill:#263238;" d="M290.704,444H130.661c-8.02,0-14.522-6.502-14.522-14.522V89.522
			c0-8.02,6.502-14.522,14.522-14.522h160.043c8.02,0,14.522,6.502,14.522,14.522v339.956C305.226,437.498,298.724,444,290.704,444z
			"/>
		<path style="opacity:0.3;fill:#FFFFFF;" d="M235.158,75H130.661c-8.02,0-14.522,6.502-14.522,14.522v289.016L235.158,75z"/>
		
			<rect id="XMLID_1_" x="124.548" y="100.059" style="fill:#FFFFFF;stroke:#263238;stroke-linecap:round;stroke-linejoin:round;stroke-miterlimit:10;" width="172.268" height="322.039"/>
		<g>
			<g>
				
					<rect x="276.672" y="103.399" style="fill:none;stroke:#263238;stroke-width:0.8211;stroke-linecap:round;stroke-linejoin:round;stroke-miterlimit:10;" width="14.284" height="7.833"/>
				
					<rect x="276.672" y="103.399" style="fill:#263238;stroke:#263238;stroke-width:0.7251;stroke-linecap:round;stroke-linejoin:round;stroke-miterlimit:10;" width="11.139" height="7.833"/>
				
					<rect x="290.926" y="105.591" style="fill:#263238;stroke:#263238;stroke-width:0.7251;stroke-linecap:round;stroke-linejoin:round;stroke-miterlimit:10;" width="2.012" height="3.45"/>
			</g>
			<g>
				
					<rect x="128.427" y="105.829" style="fill:#263238;stroke:#263238;stroke-width:0.8831;stroke-linecap:round;stroke-linejoin:round;stroke-miterlimit:10;" width="2.619" height="4.489"/>
				
					<rect x="132.542" y="104.253" style="fill:#263238;stroke:#263238;stroke-width:0.8831;stroke-linecap:round;stroke-linejoin:round;stroke-miterlimit:10;" width="2.619" height="6.066"/>
				
					<rect x="136.657" y="102.39" style="fill:#263238;stroke:#263238;stroke-width:0.8831;stroke-linecap:round;stroke-linejoin:round;stroke-miterlimit:10;" width="2.619" height="7.928"/>
			</g>
		</g>
		<g>
			<rect x="127.326" y="115.589" style="fill:#92E3A9;" width="165.424" height="12.435"/>
		</g>
	</g>
</g>
<g id="Chats">
	<g>
		<g>
			<path style="fill:#92E3A9;" d="M276.037,189.609H143.138c-4.711,0-8.53-3.819-8.53-8.53v-20.67v-5.945v-19.219l10.091,10.688
				h131.338c4.711,0,8.53,3.819,8.53,8.531v26.615C284.567,185.79,280.748,189.609,276.037,189.609z"/>
			<g>
				<path style="fill:#FFFFFF;" d="M168.909,167.766c0-6.624-5.37-11.994-11.994-11.994c-6.624,0-11.994,5.37-11.994,11.994
					c0,6.624,5.37,11.994,11.994,11.994C163.539,179.76,168.909,174.39,168.909,167.766z"/>
			</g>
			<g>
				
					<line style="fill:none;stroke:#263238;stroke-width:2;stroke-linecap:round;stroke-linejoin:round;stroke-miterlimit:10;" x1="175.038" y1="155.096" x2="199.895" y2="155.096"/>
				
					<line style="fill:none;stroke:#263238;stroke-linecap:round;stroke-linejoin:round;stroke-miterlimit:10;" x1="175.038" y1="163.758" x2="272.094" y2="163.758"/>
				
					<line style="fill:none;stroke:#263238;stroke-linecap:round;stroke-linejoin:round;stroke-miterlimit:10;" x1="175.038" y1="170.914" x2="272.094" y2="170.914"/>
				
					<line style="fill:none;stroke:#263238;stroke-linecap:round;stroke-linejoin:round;stroke-miterlimit:10;" x1="175.038" y1="178.823" x2="272.094" y2="178.823"/>
			</g>
		</g>
		<g>
			<path style="fill:#92E3A9;" d="M276.037,308.389H143.138c-4.711,0-8.53-3.819-8.53-8.53v-20.67v-5.945v-19.219l10.091,10.688
				h131.338c4.711,0,8.53,3.819,8.53,8.53v26.615C284.567,304.57,280.748,308.389,276.037,308.389z"/>
			<g>
				<path style="fill:#FFFFFF;" d="M168.909,286.546c0-6.624-5.37-11.994-11.994-11.994c-6.624,0-11.994,5.37-11.994,11.994
					c0,6.624,5.37,11.994,11.994,11.994C163.539,298.54,168.909,293.17,168.909,286.546z"/>
			</g>
			<g>
				
					<line style="fill:none;stroke:#263238;stroke-width:2;stroke-linecap:round;stroke-linejoin:round;stroke-miterlimit:10;" x1="175.038" y1="273.876" x2="199.895" y2="273.876"/>
				
					<line style="fill:none;stroke:#263238;stroke-linecap:round;stroke-linejoin:round;stroke-miterlimit:10;" x1="175.038" y1="282.538" x2="272.094" y2="282.538"/>
				
					<line style="fill:none;stroke:#263238;stroke-linecap:round;stroke-linejoin:round;stroke-miterlimit:10;" x1="175.038" y1="289.694" x2="272.094" y2="289.694"/>
				
					<line style="fill:none;stroke:#263238;stroke-linecap:round;stroke-linejoin:round;stroke-miterlimit:10;" x1="175.038" y1="297.602" x2="272.094" y2="297.602"/>
			</g>
		</g>
		<g>
			<path style="fill:#808080;" d="M146.127,380.002h132.899c4.711,0,8.53-3.819,8.53-8.53v-20.67v-5.945v-19.219l-10.091,10.688
				H146.127c-4.711,0-8.53,3.819-8.53,8.53v26.615C137.597,376.183,141.416,380.002,146.127,380.002z"/>
			<g>
				
					<ellipse transform="matrix(0.7071 -0.7071 0.7071 0.7071 -206.422 217.9719)" style="fill:#FFFFFF;" cx="159.904" cy="358.159" rx="11.994" ry="11.994"/>
			</g>
			<g>
				
					<line style="fill:none;stroke:#263238;stroke-width:2;stroke-linecap:round;stroke-linejoin:round;stroke-miterlimit:10;" x1="178.028" y1="345.489" x2="223.864" y2="345.489"/>
				
					<line style="fill:none;stroke:#263238;stroke-linecap:round;stroke-linejoin:round;stroke-miterlimit:10;" x1="178.028" y1="354.151" x2="275.083" y2="354.151"/>
				
					<line style="fill:none;stroke:#263238;stroke-linecap:round;stroke-linejoin:round;stroke-miterlimit:10;" x1="178.028" y1="361.307" x2="275.083" y2="361.307"/>
				
					<line style="fill:none;stroke:#263238;stroke-linecap:round;stroke-linejoin:round;stroke-miterlimit:10;" x1="178.028" y1="369.216" x2="275.083" y2="369.216"/>
			</g>
		</g>
	</g>
</g>
<g id="Character">
	<path style="fill:none;stroke:#FFFFFF;stroke-linecap:round;stroke-linejoin:round;stroke-miterlimit:10;" d="M205.108,439.4
		c0-3.548-2.877-6.425-6.425-6.425c-3.549,0-6.425,2.876-6.425,6.425s2.877,6.425,6.425,6.425
		C202.231,445.825,205.108,442.949,205.108,439.4z"/>
	<g>
		<path style="fill:#FFFFFF;stroke:#263238;stroke-linecap:round;stroke-linejoin:round;stroke-miterlimit:10;" d="M369.535,423.293
			l-2.268,7.841c0,0-9.538,6.111-11.072,10.598c-1.534,4.487,0.498,7.482,4.104,7.376c3.606-0.106,9.122-1.379,11.251-4.496
			c2.129-3.117,3.704-6.217,6.144-8.232c2.44-2.015,5.776-1.836,6.731-7.139c0.954-5.303-3.256-6.845-6.601-7.302
			C374.479,421.482,369.535,423.293,369.535,423.293z"/>
		<g>
			<path style="fill:#263238;stroke:#263238;stroke-linecap:round;stroke-linejoin:round;stroke-miterlimit:10;" d="
				M343.408,250.834c0,0-4.217,9.266-3.899,20.085c0,0-3.125,16.473,0.832,37.735c3.957,21.262,11.961,38.518,12.018,40.46
				s-0.75,21.678,1.689,29.103c2.44,7.424,14.817,41.21,14.817,41.21s-0.693,4.74,0.726,5.809c1.42,1.069,5.328,1.787,6.152,1.485
				c0.824-0.302,3.035-0.645,3.035-0.645l1.518,4.398c0,0,0.84,0.253,4.169,0.155c3.329-0.098,6.037-2.399,6.037-2.399
				s5.956-24.052,9.644-40.264c3.688-16.212,5.466-40.696,5.466-40.696s7.947-31.885,9.031-51.629
				c1.085-19.745-3.011-26.843-3.011-26.843s-0.514-8.036-3.517-15.722c-3.003-7.686-8.779-5.85-30.245-8.828
				s-27.226-0.587-29.143,0.302S343.408,250.834,343.408,250.834z"/>
			<g>
				<path style="fill:none;stroke:#808080;stroke-linecap:round;stroke-linejoin:round;stroke-miterlimit:10;" d="M378.719,413.888
					c0.241,2.704,0.387,4.404,0.387,4.404"/>
				<path style="fill:none;stroke:#808080;stroke-linecap:round;stroke-linejoin:round;stroke-miterlimit:10;" d="M375.474,294.848
					c0,0-2.664,37.064-0.727,45.168c1.756,7.342,2.669,11.413,2.669,11.413s-3.28,20.642-1.852,31.428
					c0.854,6.455,1.954,17.874,2.7,26.004"/>
				<path style="fill:none;stroke:#808080;stroke-linecap:round;stroke-linejoin:round;stroke-miterlimit:10;" d="M393.199,275.831
					c1.593-0.802,3.26-1.464,4.98-1.918"/>
				<path style="fill:none;stroke:#808080;stroke-linecap:round;stroke-linejoin:round;stroke-miterlimit:10;" d="M376.999,290.083
					c0,0,4.887-6.831,12.077-11.791"/>
				<path style="fill:none;stroke:#808080;stroke-linecap:round;stroke-linejoin:round;stroke-miterlimit:10;" d="M358.353,281.879
					c0,0,4.538,5.749,11.497,9.077"/>
				<path style="fill:none;stroke:#808080;stroke-linecap:round;stroke-linejoin:round;stroke-miterlimit:10;" d="M386.888,277.021
					c0,0,5.719-3.778,12.605-5.646"/>
			</g>
		</g>
		<g>
			<path style="fill:#92E3A9;stroke:#263238;stroke-linecap:round;stroke-linejoin:round;stroke-miterlimit:10;" d="M375.89,159.852
				c0,0-0.321,7.201-1.589,9.369c-1.268,2.168-14.605,1.495-19.881,3.248c-5.275,1.753-8.61,6.113-10.645,9.369
				c-2.035,3.256-21.227,38.979-20.569,43.221c0.658,4.242,0.978,6.097,7.091,5.651c6.113-0.446,21.047-17.932,21.047-17.932
				l0.462,15.701l-8.398,22.354c0,0,11.107,6.332,31.973,9.447c20.867,3.115,33.656-5.784,33.656-5.784l-3.28-20.945l4.039-16.632
				c0,0,8.79,18.119,11.584,22.565c2.794,4.446,9.439,3.984,12.75-1.174c3.311-5.158,2.403-8.86-0.728-15.693
				c-3.131-6.833-9.604-27.684-12.156-32.936c-2.552-5.252-3.741-9.479-11.302-12.985c-7.561-3.506-19.317-4.759-19.317-4.759
				l0.196-11.459L375.89,159.852z"/>
			<path style="fill:#263238;stroke:#263238;stroke-linecap:round;stroke-linejoin:round;stroke-miterlimit:10;" d="
				M390.823,160.479l-14.934-0.626c0,0-0.321,7.201-1.589,9.369c-0.742,1.268-5.612,1.564-10.583,1.942
				c1.055,5.764,4.555,18.828,15.566,29.484c0,0,16.175-12.421,23.295-26.488c-6.1-1.598-11.951-2.222-11.951-2.222L390.823,160.479
				z"/>
			<path style="fill:none;stroke:#263238;stroke-linecap:round;stroke-linejoin:round;stroke-miterlimit:10;" d="M348.861,212.66
				c0,0-1.018-7.632,3.053-19.842"/>
		</g>
		<g>
			<path style="fill:#FFFFFF;stroke:#263238;stroke-linecap:round;stroke-linejoin:round;stroke-miterlimit:10;" d="
				M390.823,160.479l-14.934-0.626c0,0-0.321,7.201-1.589,9.369c-0.41,0.7-2.082,1.103-4.331,1.388
				c-0.082,2.5,0.056,8.264,2.625,13.045c3.381,6.293,7.224,10.175,7.224,10.175s7.788-6.888,12.093-14.472
				c1.471-2.591,2.476-4.88,3.172-6.782c-2.649-0.445-4.456-0.638-4.456-0.638L390.823,160.479z"/>
			<path style="fill:#263238;stroke:#263238;stroke-linecap:round;stroke-linejoin:round;stroke-miterlimit:10;" d="
				M375.481,164.446c1.968,1.977,4.809,4.112,8.616,5.222c2.425,0.707,4.633,0.931,6.554,0.905l0.172-10.095l-14.934-0.626
				C375.89,159.852,375.789,162.09,375.481,164.446z"/>
		</g>
		<g>
			<path style="fill:#263238;stroke:#263238;stroke-linecap:round;stroke-linejoin:round;stroke-miterlimit:10;" d="M414.777,126.23
				c0,0-3.958-26.706-24.791-28.977s-39.469,11.256-41.8,20.265c-2.331,9.009,8.56,16.476,7.789,19.671
				c-0.771,3.195-9.433,2.873-11.255,9.56c-1.822,6.687,6.933,10.179,6.933,10.179s-15.866-0.11-10.179,6.933
				c5.687,7.043,14.23,3.331,16.468,0.958c2.237-2.373,0.992-5.509,0.992-5.509s7.331,4.111,14.442,0.729
				c7.111-3.382,8.085-9.467,8.085-9.467s8.848,6.662,22.79,0.195C418.193,144.299,416.625,130.213,414.777,126.23z"/>
			<path style="fill:#FFFFFF;stroke:#263238;stroke-linecap:round;stroke-linejoin:round;stroke-miterlimit:10;" d="
				M406.388,135.042c0,0,0.923,4.464-1.808,7.914c-2.731,3.451-5.104,1.428-5.104,1.428l0.58-9.801L406.388,135.042z"/>
			<path style="fill:#FFFFFF;stroke:#263238;stroke-linecap:round;stroke-linejoin:round;stroke-miterlimit:10;" d="
				M363.128,135.248c0,0-1.314,4.365,1.102,8.043c2.415,3.678,4.958,1.873,4.958,1.873l0.288-9.815L363.128,135.248z"/>
			<g>
				<path style="fill:#FFFFFF;stroke:#263238;stroke-linecap:round;stroke-linejoin:round;stroke-miterlimit:10;" d="
					M367.858,129.341c0,0,0.161,15.281,0.898,20.739c0.737,5.458,4.551,17.459,14.917,16.866
					c12.092-0.692,14.027-13.391,15.9-18.349c1.873-4.958,2.593-19.688,2.593-19.688s0.11-15.866-13.807-18.34
					C374.443,108.093,369.798,116.882,367.858,129.341z"/>
				<path style="fill:#263238;" d="M378.664,143.732c0.031,1.035-0.525,1.89-1.242,1.911c-0.716,0.021-1.321-0.8-1.352-1.835
					c-0.031-1.034,0.525-1.89,1.242-1.911C378.028,141.876,378.633,142.697,378.664,143.732z"/>
				<path style="fill:#263238;" d="M391.368,144.223c0.03,1.035-0.525,1.89-1.242,1.911c-0.716,0.021-1.321-0.8-1.352-1.835
					c-0.03-1.034,0.525-1.89,1.242-1.911C390.733,142.367,391.338,143.189,391.368,144.223z"/>
				<path style="fill:none;stroke:#263238;stroke-linecap:round;stroke-linejoin:round;stroke-miterlimit:10;" d="M380.63,151.749
					c0,0,1.788,1.966,5.212,0.712"/>
				<path style="fill:none;stroke:#263238;stroke-linecap:round;stroke-linejoin:round;stroke-miterlimit:10;" d="M376.969,154.741
					c0,0,2.983,3.373,6.721,2.975c3.738-0.398,5.407-2.466,5.407-2.466"/>
			</g>
			<g>
				<path style="fill:#263238;stroke:#263238;stroke-linecap:round;stroke-linejoin:round;stroke-miterlimit:10;" d="
					M358.281,137.121c0,0,3.89,4.789,14.84,4.466c10.95-0.322,18.569-6.026,18.569-6.026s-6.467,5.67-1.28,5.518
					c5.187-0.153,9.179-1.712,14.747-8.509c5.568-6.797,4.704-16.578,1.093-21.663c-3.611-5.085-18.968-7.518-33.495-1.322
					C358.23,115.78,355.518,131.434,358.281,137.121z"/>
				<path style="fill:none;stroke:#808080;stroke-linecap:round;stroke-linejoin:round;stroke-miterlimit:10;" d="M362.547,133.171
					c-1.547-1.047-2.469-1.929-2.469-1.929"/>
				<path style="fill:none;stroke:#808080;stroke-linecap:round;stroke-linejoin:round;stroke-miterlimit:10;" d="M404.723,123.508
					c0,0-7.382,9.14-9.491,9.492c-2.109,0.352-1.758-6.328-1.758-6.328s-8.437,5.976-16.874,9.14
					c-3.889,1.458-7.703,0.601-10.685-0.747"/>
			</g>
		</g>
		<path style="fill:#FFFFFF;stroke:#263238;stroke-linecap:round;stroke-linejoin:round;stroke-miterlimit:10;" d="M380.297,430.473
			c0,0-0.294,8.893-0.424,13.895c-0.13,5.001,1.632,8.281,4.961,8.183c3.329-0.098,11.439,1.885,13.258-2.333
			c1.819-4.218-4.855-14.017-5.801-17.876c-0.947-3.859-1.567-6.062-1.567-6.062l-10.492,1.975L380.297,430.473z"/>
		<g>
			<g>
				<path style="fill:#FFFFFF;stroke:#263238;stroke-linecap:round;stroke-linejoin:round;stroke-miterlimit:10;" d="M279.27,202.43
					c0,0-4.378-3.348-7.469-3.348c-3.09,0-4.121-2.318-5.666-2.833c-1.545-0.515-1.803,3.606,0,4.378
					c1.803,0.773,4.121,1.803,4.121,1.803l1.803,3.348l9.529,1.03L279.27,202.43z"/>
				<path style="fill:#808080;" d="M267.419,243.767l128.447,10.965c4.553,0.389,8.56-2.988,8.948-7.541l1.705-19.978l0.491-5.746
					l1.586-18.575l-10.634,9.498l-126.939-10.836c-4.553-0.389-8.56,2.987-8.948,7.541l-2.196,25.723
					C259.49,239.372,262.866,243.378,267.419,243.767z"/>
				<g>
					<path style="fill:#FFFFFF;" d="M294.129,224.782c0.547-6.402-4.201-12.036-10.603-12.582
						c-6.402-0.546-12.035,4.201-12.582,10.603c-0.547,6.402,4.201,12.036,10.603,12.582
						C287.95,235.932,293.583,231.184,294.129,224.782z"/>
				</g>
				<g>
					
						<line style="fill:none;stroke:#263238;stroke-width:2;stroke-linecap:round;stroke-linejoin:round;stroke-miterlimit:10;" x1="301.099" y1="213.042" x2="345.4" y2="216.824"/>
					
						<line style="fill:none;stroke:#263238;stroke-linecap:round;stroke-linejoin:round;stroke-miterlimit:10;" x1="300.384" y1="221.414" x2="394.188" y2="229.422"/>
					
						<line style="fill:none;stroke:#263238;stroke-linecap:round;stroke-linejoin:round;stroke-miterlimit:10;" x1="299.793" y1="228.33" x2="393.598" y2="236.337"/>
					
						<line style="fill:none;stroke:#263238;stroke-linecap:round;stroke-linejoin:round;stroke-miterlimit:10;" x1="299.141" y1="235.974" x2="392.946" y2="243.982"/>
				</g>
			</g>
			<g>
				<path style="fill:#92E3A9;stroke:#263238;stroke-linecap:round;stroke-linejoin:round;stroke-miterlimit:10;" d="
					M410.976,226.58c0,0,5.267-1.621,10.737-2.836c5.47-1.215,12.56,2.431,14.181,6.28c1.621,3.849,0.81,6.888-1.215,9.927
					c-2.026,3.039-5.065,4.457-9.724,3.444c-3.167-0.689-6.483-4.052-7.496-6.077c-1.013-2.026-1.013-2.026-1.013-2.026
					s-0.81-1.215-1.621-1.215"/>
				<g>
					<path style="fill:#FFFFFF;stroke:#263238;stroke-linecap:round;stroke-linejoin:round;stroke-miterlimit:10;" d="
						M408.95,224.554c0,0-4.639-5.584-6.89-4.941c-1.708,0.488-8.642,2.031-11.884,2.747c-0.846,0.187-1.272,1.131-0.857,1.892l0,0
						c0.236,0.434,0.698,0.696,1.191,0.677l9.729-0.374l1.215,2.026l-12.093,2.016c-0.723,0.12-1.234,0.773-1.178,1.504l0,0
						c0.058,0.752,0.695,1.326,1.449,1.306l12.513-0.914l-10.831,4.034c-1.09,0.318-1.357,1.739-0.457,2.431l0,0
						c0.299,0.23,0.678,0.328,1.051,0.272l12.26-2.585l-5.348,4.293l0,0c0.13,1.032,0.883,1.078,1.94,0.712l10.215-3.751
						c0,0,2.431,1.013,5.267,1.013c2.836,0,3.444-3.444,1.215-6.685C415.23,226.985,408.95,224.554,408.95,224.554z"/>
					<path style="fill:none;stroke:#263238;stroke-linecap:round;stroke-linejoin:round;stroke-miterlimit:10;" d="M401.454,226.58
						c0,0,3.14-0.561,4.418-0.454"/>
					
						<line style="fill:none;stroke:#263238;stroke-linecap:round;stroke-linejoin:round;stroke-miterlimit:10;" x1="402.145" y1="230.492" x2="405.766" y2="229.64"/>
					
						<line style="fill:none;stroke:#263238;stroke-linecap:round;stroke-linejoin:round;stroke-miterlimit:10;" x1="404.169" y1="234.645" x2="407.363" y2="233.474"/>
				</g>
			</g>
			<path style="fill:#FFFFFF;stroke:#263238;stroke-linecap:round;stroke-linejoin:round;stroke-miterlimit:10;" d="
				M262.031,199.298L262.031,199.298c-0.617,0.48-0.797,1.331-0.418,2.015c1.023,1.85,3.104,5.166,4.78,4.98
				c2.318-0.257,0.515-2.575,0-3.605c-0.304-0.609-1.328-2.027-2.115-3.085C263.747,198.887,262.734,198.751,262.031,199.298z"/>
			<path style="fill:#FFFFFF;stroke:#263238;stroke-linecap:round;stroke-linejoin:round;stroke-miterlimit:10;" d="
				M260.228,203.161L260.228,203.161c-0.617,0.48-0.797,1.331-0.418,2.015c1.023,1.85,3.104,5.166,4.78,4.98
				c2.318-0.257,0.515-2.575,0-3.605c-0.304-0.609-1.328-2.027-2.115-3.085C261.944,202.751,260.931,202.614,260.228,203.161z"/>
			<path style="fill:#FFFFFF;stroke:#263238;stroke-linecap:round;stroke-linejoin:round;stroke-miterlimit:10;" d="
				M257.279,210.309L257.279,210.309c-0.501,0.389-0.647,1.081-0.34,1.636c0.831,1.502,2.519,4.193,3.88,4.042
				c1.882-0.209,0.418-2.09,0-2.927c-0.247-0.494-1.078-1.645-1.716-2.504C258.672,209.976,257.85,209.865,257.279,210.309z"/>
			<path style="fill:#FFFFFF;stroke:#263238;stroke-linecap:round;stroke-linejoin:round;stroke-miterlimit:10;" d="M257.91,205.994
				L257.91,205.994c-0.617,0.48-0.796,1.331-0.418,2.015c1.023,1.85,3.104,5.166,4.78,4.98c2.318-0.257,0.515-2.575,0-3.605
				c-0.304-0.609-1.328-2.027-2.115-3.085C259.626,205.583,258.613,205.447,257.91,205.994z"/>
		</g>
	</g>
</g>
</svg>
