<?xml version="1.0" encoding="utf-8"?>
<!-- Generator: Adobe Illustrator 27.5.0, SVG Export Plug-In . SVG Version: 6.00 Build 0)  -->
<svg version="1.1" xmlns="http://www.w3.org/2000/svg" xmlns:xlink="http://www.w3.org/1999/xlink" x="0px" y="0px"
	 viewBox="0 0 600 600" style="enable-background:new 0 0 600 600;" xml:space="preserve">
<g id="background">
	<rect style="fill:#FFFFFF;" width="600" height="600"/>
</g>
<g id="objects">
	<g>
		<g>
			<path style="fill:#8BBC4A;" d="M300,430.579c-2.33,0-4.22-1.89-4.22-4.22V287.441c0-53.469,29.517-101.919,77.03-126.443
				c2.073-1.068,4.616-0.256,5.685,1.814c1.069,2.071,0.257,4.616-1.814,5.685c-44.696,23.069-72.462,68.645-72.462,118.943V426.36
				C304.22,428.69,302.33,430.579,300,430.579z"/>
			<g>
				<path style="fill:#9CD83D;" d="M522,93.749c-43.758,35.383-36.733,76.681-84.551,116.697
					c-28.63,23.971-64.531,17.241-86.592-12.88c-3.106-4.241-5.793-8.738-8.041-13.43c-1.224-2.529-2.323-5.109-3.274-7.725
					c-9.856-26.976-5.573-57.716,18.009-75.004C419.632,55.933,522,93.749,522,93.749z"/>
				<path style="fill:#98C939;" d="M355.22,177.034c0,0-6.053-35.964,6.41-52.344c0,0-6.766,30.267,3.917,43.798L355.22,177.034z"/>
				<path style="fill:#98C939;" d="M373.952,160.306c0,0-2.896-36.355,10.948-51.586c0,0-9.378,29.562,0.084,43.973L373.952,160.306
					z"/>
				<path style="fill:#98C939;" d="M395.599,148.977c0,0,4.052-36.244,20.533-48.574c0,0-14.815,27.247-8.257,43.191
					L395.599,148.977z"/>
				<path style="fill:#98C939;" d="M355.555,176.906c0,0,28.799,22.377,49.129,19.167c0,0-29.858-8.389-36.709-24.209
					L355.555,176.906z"/>
				<path style="fill:#98C939;" d="M374.746,163.905c0,0,30.639,19.782,50.612,14.812c0,0-30.475-5.754-38.68-20.917
					L374.746,163.905z"/>
				<path style="fill:#98C939;" d="M397.442,151.104c0,0,33.835,13.611,52.503,4.943c0,0-31.014,0.13-41.945-13.201L397.442,151.104
					z"/>
				<path style="fill:#98C939;" d="M423.693,130.428c0,0,3.143-28.117,15.928-37.681c0,0-11.492,21.137-6.406,33.505
					L423.693,130.428z"/>
				<path style="fill:#98C939;" d="M425.122,132.078c0,0,26.248,10.559,40.729,3.835c0,0-24.059,0.101-32.539-10.241
					L425.122,132.078z"/>
				<path style="fill:#98C939;" d="M452.611,119.113c0,0,2.269-20.299,11.499-27.204c0,0-8.297,15.26-4.624,24.189L452.611,119.113z
					"/>
				<path style="fill:#98C939;" d="M453.643,120.305c0,0,18.949,7.623,29.404,2.769c0,0-17.369,0.073-23.491-7.393L453.643,120.305z
					"/>
				<path style="fill:#8BBC4A;" d="M478.226,110.367c-41.648,17.172-108.615,59.034-132.173,79.867
					c-1.169-1.989-2.242-4.027-3.243-6.1c-0.265-0.542-0.518-1.097-0.772-1.64c10.247-10.199,81.654-57.804,134.777-75.322
					C478.828,106.508,480.186,109.559,478.226,110.367z"/>
			</g>
			<path style="fill:#8BBC4A;" d="M300,342.704c-2.33,0-4.22-1.89-4.22-4.22c0-50.298-27.766-95.875-72.462-118.943
				c-2.071-1.069-2.883-3.614-1.814-5.685c1.069-2.07,3.612-2.882,5.685-1.814c47.513,24.524,77.03,72.973,77.03,126.443
				C304.22,340.815,302.33,342.704,300,342.704z"/>
			<g>
				<path style="fill:#9CD83D;" d="M78,144.793c43.758,35.383,36.733,76.681,84.551,116.697c28.63,23.97,64.531,17.241,86.591-12.88
					c3.106-4.241,5.793-8.738,8.041-13.43c1.224-2.529,2.323-5.109,3.274-7.725c9.856-26.976,5.573-57.716-18.009-75.004
					C180.368,106.977,78,144.793,78,144.793z"/>
				<path style="fill:#98C939;" d="M244.78,228.078c0,0,6.053-35.964-6.409-52.344c0,0,6.766,30.267-3.917,43.798L244.78,228.078z"
					/>
				<path style="fill:#98C939;" d="M226.048,211.35c0,0,2.896-36.355-10.948-51.586c0,0,9.378,29.562-0.084,43.973L226.048,211.35z"
					/>
				<path style="fill:#98C939;" d="M204.401,200.021c0,0-4.052-36.244-20.533-48.574c0,0,14.815,27.247,8.257,43.191
					L204.401,200.021z"/>
				<path style="fill:#98C939;" d="M244.445,227.95c0,0-28.799,22.377-49.129,19.167c0,0,29.858-8.389,36.709-24.209L244.445,227.95
					z"/>
				<path style="fill:#98C939;" d="M225.254,214.949c0,0-30.639,19.782-50.612,14.812c0,0,30.475-5.754,38.68-20.917
					L225.254,214.949z"/>
				<path style="fill:#98C939;" d="M202.558,202.148c0,0-33.835,13.611-52.503,4.943c0,0,31.014,0.13,41.945-13.201L202.558,202.148
					z"/>
				<path style="fill:#98C939;" d="M176.307,181.472c0,0-3.143-28.117-15.928-37.681c0,0,11.492,21.137,6.405,33.505
					L176.307,181.472z"/>
				<path style="fill:#98C939;" d="M174.878,183.122c0,0-26.248,10.559-40.729,3.835c0,0,24.059,0.101,32.539-10.241
					L174.878,183.122z"/>
				<path style="fill:#98C939;" d="M147.389,170.157c0,0-2.269-20.299-11.499-27.204c0,0,8.297,15.26,4.624,24.189L147.389,170.157z
					"/>
				<path style="fill:#98C939;" d="M146.357,171.349c0,0-18.949,7.623-29.404,2.769c0,0,17.369,0.073,23.491-7.393L146.357,171.349z
					"/>
				<path style="fill:#8BBC4A;" d="M121.774,161.411c41.648,17.172,108.615,59.034,132.173,79.867
					c1.169-1.989,2.242-4.027,3.243-6.1c0.265-0.542,0.518-1.097,0.772-1.64c-10.247-10.199-81.654-57.804-134.777-75.322
					C121.172,157.552,119.814,160.603,121.774,161.411z"/>
			</g>
		</g>
		<g>
			<path style="fill:#5E3430;" d="M94.791,549C80.55,549,69,537.45,69,523.209s11.55-25.791,25.791-25.791
				c0.157,0,0.314,0.011,0.482,0.011c4.239-13.019,16.473-22.438,30.916-22.438c0.157,0,0.314,0.011,0.482,0.011
				c3.633-9.823,13.097-16.832,24.188-16.832c4.508,0,8.758,1.166,12.447,3.196c4.553-2.736,9.879-4.317,15.587-4.317
				c1.278,0,2.534,0.09,3.768,0.247c5.865-8.264,15.486-13.658,26.386-13.703c2.714-4.687,7.771-7.85,13.58-7.85
				c3.297,0,6.347,1.02,8.87,2.747c6.751-7.21,16.349-11.718,27.014-11.718c2.243,0,4.429,0.213,6.571,0.594
				c7.973-10.574,20.644-17.415,34.919-17.415s26.946,6.84,34.919,17.415c2.142-0.381,4.328-0.594,6.571-0.594
				c10.664,0,20.263,4.508,27.014,11.718c2.523-1.727,5.573-2.747,8.87-2.747c5.809,0,10.866,3.162,13.58,7.85
				c10.9,0.045,20.521,5.439,26.386,13.703c1.233-0.157,2.489-0.247,3.768-0.247c5.708,0,11.034,1.581,15.587,4.317
				c3.689-2.03,7.939-3.196,12.447-3.196c11.09,0,20.555,7.009,24.188,16.832c0.168,0,0.325-0.011,0.482-0.011
				c14.443,0,26.677,9.419,30.916,22.438c0.168,0,0.325-0.011,0.482-0.011c14.241,0,25.791,11.55,25.791,25.791
				S519.45,549,505.209,549H94.791z"/>
			<path style="fill:#492523;" d="M143,492c0,0,18,1,22-18c0,0,1.44,8.156-1.293,14.253C160.902,494.51,153.787,498.629,143,492z"/>
			<path style="fill:#492523;" d="M458.522,497.006c0,0-23.006,1.278-28.118-23.006c0,0-1.841,10.425,1.652,18.217
				C435.64,500.214,444.734,505.479,458.522,497.006z"/>
			<path style="fill:#492523;" d="M290.891,526.433c0,0-23.006,1.278-28.118-23.006c0,0-1.841,10.425,1.652,18.217
				C268.009,529.642,277.103,534.906,290.891,526.433z"/>
			<path style="fill:#492523;" d="M258.635,467.493c0,0,23.006,1.278,28.118-23.006c0,0,1.841,10.425-1.652,18.217
				C281.516,470.702,272.422,475.966,258.635,467.493z"/>
			<path style="fill:#492523;" d="M405.019,484.286c-6.68,4.11-12.21,4.87-16.51,3.64c-2.29,2.41-5.37,3.81-8.63,4.33
				c-8.14,1.3-17.39-3.03-17.39-3.03c8.85,0.49,15.05-2.17,19.35-5.73c-0.95-1.15-1.74-2.45-2.36-3.83
				c-3.37-7.52-1.6-17.58-1.6-17.58c1.61,7.62,5.04,12.63,8.94,15.92c1.65,1.4,3.39,2.48,5.1,3.33
				C398.619,484.636,405.019,484.286,405.019,484.286z"/>
			<path style="fill:#492523;" d="M195.316,476.478c6.68,4.11,12.21,4.87,16.51,3.64c2.29,2.41,5.37,3.81,8.63,4.33
				c8.14,1.3,17.39-3.03,17.39-3.03c-8.85,0.49-15.05-2.17-19.35-5.73c0.95-1.15,1.74-2.45,2.36-3.83c3.37-7.52,1.6-17.58,1.6-17.58
				c-1.61,7.62-5.04,12.63-8.94,15.92c-1.65,1.4-3.39,2.48-5.1,3.33C201.716,476.828,195.316,476.478,195.316,476.478z"/>
			<path style="fill:#492523;" d="M117.926,549c36.772,0,47.453-19.987,47.453-19.987S173.307,549,218.94,549H117.926z"/>
			<path style="fill:#492523;" d="M405.61,549c36.772,0,47.453-19.987,47.453-19.987S457.293,549,502.926,549H405.61z"/>
		</g>
	</g>
</g>
</svg>
